<?xml version="1.0" encoding="utf-8"?>
<!-- Generator: Adobe Illustrator 16.0.0, SVG Export Plug-In . SVG Version: 6.00 Build 0)  -->
<!DOCTYPE svg PUBLIC "-//W3C//DTD SVG 1.1//EN" "http://www.w3.org/Graphics/SVG/1.1/DTD/svg11.dtd">
<svg version="1.1" id="Layer_1" xmlns="http://www.w3.org/2000/svg" xmlns:xlink="http://www.w3.org/1999/xlink" x="0px" y="0px"
	 width="16px" height="16px" viewBox="0 0 16 16" enable-background="new 0 0 16 16" xml:space="preserve">
<g>
	<rect x="12" y="14" fill="#725F65" width="1" height="1"/>
	<rect x="11" y="14" fill="#B6A696" width="1" height="1"/>
	<rect x="10" y="14" fill="#B6A696" width="1" height="1"/>
	<rect x="9" y="14" fill="#725F65" width="1" height="1"/>
	<rect x="6" y="14" fill="#725F65" width="1" height="1"/>
	<rect x="5" y="14" fill="#B6A696" width="1" height="1"/>
	<rect x="4" y="14" fill="#B6A696" width="1" height="1"/>
	<rect x="3" y="14" fill="#725F65" width="1" height="1"/>
	<rect x="12" y="13" fill="#9E1328" width="1" height="1"/>
	<rect x="11" y="13" fill="#9E1328" width="1" height="1"/>
	<rect x="10" y="13" fill="#9E1328" width="1" height="1"/>
	<rect x="9" y="13" fill="#725F65" width="1" height="1"/>
	<rect x="8" y="13" fill="#725F65" width="1" height="1"/>
	<rect x="7" y="13" fill="#725F65" width="1" height="1"/>
	<rect x="6" y="13" fill="#725F65" width="1" height="1"/>
	<rect x="5" y="13" fill="#9E1328" width="1" height="1"/>
	<rect x="4" y="13" fill="#9E1328" width="1" height="1"/>
	<rect x="3" y="13" fill="#9E1328" width="1" height="1"/>
	<rect x="12" y="12" fill="#FF4646" width="1" height="1"/>
	<rect x="11" y="12" fill="#FF4646" width="1" height="1"/>
	<rect x="10" y="12" fill="#9E1328" width="1" height="1"/>
	<rect x="9" y="12" fill="#B6A696" width="1" height="1"/>
	<rect x="8" y="12" fill="#F2F1F0" width="1" height="1"/>
	<rect x="7" y="12" fill="#F2F1F0" width="1" height="1"/>
	<rect x="6" y="12" fill="#B6A696" width="1" height="1"/>
	<rect x="5" y="12" fill="#9E1328" width="1" height="1"/>
	<rect x="4" y="12" fill="#FF4646" width="1" height="1"/>
	<rect x="3" y="12" fill="#FF4646" width="1" height="1"/>
	<rect x="15" y="11" fill="#9E1328" width="1" height="1"/>
	<rect x="14" y="11" fill="#9E1328" width="1" height="1"/>
	<rect x="13" y="11" fill="#9E1328" width="1" height="1"/>
	<rect x="12" y="11" fill="#9E1328" width="1" height="1"/>
	<rect x="11" y="11" fill="#9E1328" width="1" height="1"/>
	<rect x="10" y="11" fill="#FF4646" width="1" height="1"/>
	<rect x="9" y="11" fill="#B6A696" width="1" height="1"/>
	<rect x="8" y="11" fill="#F2F1F0" width="1" height="1"/>
	<rect x="7" y="11" fill="#F2F1F0" width="1" height="1"/>
	<rect x="6" y="11" fill="#B6A696" width="1" height="1"/>
	<rect x="5" y="11" fill="#FF4646" width="1" height="1"/>
	<rect x="4" y="11" fill="#9E1328" width="1" height="1"/>
	<rect x="3" y="11" fill="#9E1328" width="1" height="1"/>
	<rect x="2" y="11" fill="#9E1328" width="1" height="1"/>
	<rect x="1" y="11" fill="#9E1328" width="1" height="1"/>
	<rect y="11" fill="#9E1328" width="1" height="1"/>
	<rect x="15" y="10" fill="#FF4646" width="1" height="1"/>
	<rect x="14" y="10" fill="#FF4646" width="1" height="1"/>
	<rect x="13" y="10" fill="#FF4646" width="1" height="1"/>
	<rect x="12" y="10" fill="#F2F1F0" width="1" height="1"/>
	<rect x="11" y="10" fill="#F2F1F0" width="1" height="1"/>
	<rect x="10" y="10" fill="#9E1328" width="1" height="1"/>
	<rect x="9" y="10" fill="#725F65" width="1" height="1"/>
	<rect x="8" y="10" fill="#B6A696" width="1" height="1"/>
	<rect x="7" y="10" fill="#B6A696" width="1" height="1"/>
	<rect x="6" y="10" fill="#725F65" width="1" height="1"/>
	<rect x="5" y="10" fill="#9E1328" width="1" height="1"/>
	<rect x="4" y="10" fill="#F2F1F0" width="1" height="1"/>
	<rect x="3" y="10" fill="#F2F1F0" width="1" height="1"/>
	<rect x="2" y="10" fill="#FF4646" width="1" height="1"/>
	<rect x="1" y="10" fill="#FF4646" width="1" height="1"/>
	<rect y="10" fill="#FF4646" width="1" height="1"/>
	<rect x="14" y="9" fill="#9E1328" width="1" height="1"/>
	<rect x="13" y="9" fill="#9E1328" width="1" height="1"/>
	<rect x="12" y="9" fill="#725F65" width="1" height="1"/>
	<rect x="11" y="9" fill="#725F65" width="1" height="1"/>
	<rect x="10" y="9" fill="#FF4646" width="1" height="1"/>
	<rect x="9" y="9" fill="#B6A696" width="1" height="1"/>
	<rect x="8" y="9" fill="#F2F1F0" width="1" height="1"/>
	<rect x="7" y="9" fill="#F2F1F0" width="1" height="1"/>
	<rect x="6" y="9" fill="#B6A696" width="1" height="1"/>
	<rect x="5" y="9" fill="#FF4646" width="1" height="1"/>
	<rect x="4" y="9" fill="#725F65" width="1" height="1"/>
	<rect x="3" y="9" fill="#725F65" width="1" height="1"/>
	<rect x="2" y="9" fill="#9E1328" width="1" height="1"/>
	<rect x="1" y="9" fill="#9E1328" width="1" height="1"/>
	<rect x="13" y="8" fill="#FF4646" width="1" height="1"/>
	<rect x="12" y="8" fill="#F2F1F0" width="1" height="1"/>
	<rect x="11" y="8" fill="#F2F1F0" width="1" height="1"/>
	<rect x="10" y="8" fill="#FF4646" width="1" height="1"/>
	<rect x="9" y="8" fill="#9E1328" width="1" height="1"/>
	<rect x="8" y="8" fill="#725F65" width="1" height="1"/>
	<rect x="7" y="8" fill="#725F65" width="1" height="1"/>
	<rect x="6" y="8" fill="#9E1328" width="1" height="1"/>
	<rect x="5" y="8" fill="#FF4646" width="1" height="1"/>
	<rect x="4" y="8" fill="#F2F1F0" width="1" height="1"/>
	<rect x="3" y="8" fill="#F2F1F0" width="1" height="1"/>
	<rect x="2" y="8" fill="#FF4646" width="1" height="1"/>
	<rect x="12" y="7" fill="#F2F1F0" width="1" height="1"/>
	<rect x="11" y="7" fill="#F2F1F0" width="1" height="1"/>
	<rect x="10" y="7" fill="#9E1328" width="1" height="1"/>
	<rect x="9" y="7" fill="#281813" width="1" height="1"/>
	<rect x="8" y="7" fill="#281813" width="1" height="1"/>
	<rect x="7" y="7" fill="#281813" width="1" height="1"/>
	<rect x="6" y="7" fill="#281813" width="1" height="1"/>
	<rect x="5" y="7" fill="#9E1328" width="1" height="1"/>
	<rect x="4" y="7" fill="#F2F1F0" width="1" height="1"/>
	<rect x="3" y="7" fill="#F2F1F0" width="1" height="1"/>
	<rect x="12" y="6" fill="#725F65" width="1" height="1"/>
	<rect x="10" y="6" fill="#FF4646" width="1" height="1"/>
	<rect x="9" y="6" fill="#281813" width="1" height="1"/>
	<rect x="8" y="6" fill="#20A3F8" width="1" height="1"/>
	<rect x="7" y="6" fill="#281813" width="1" height="1"/>
	<rect x="6" y="6" fill="#281813" width="1" height="1"/>
	<rect x="5" y="6" fill="#FF4646" width="1" height="1"/>
	<rect x="3" y="6" fill="#725F65" width="1" height="1"/>
	<rect x="12" y="5" fill="#725F65" width="1" height="1"/>
	<rect x="10" y="5" fill="#FF4646" width="1" height="1"/>
	<rect x="9" y="5" fill="#FF4646" width="1" height="1"/>
	<rect x="8" y="5" fill="#281813" width="1" height="1"/>
	<rect x="7" y="5" fill="#281813" width="1" height="1"/>
	<rect x="6" y="5" fill="#FF4646" width="1" height="1"/>
	<rect x="5" y="5" fill="#FF4646" width="1" height="1"/>
	<rect x="3" y="5" fill="#725F65" width="1" height="1"/>
	<rect x="12" y="4" fill="#B6A696" width="1" height="1"/>
	<rect x="10" y="4" fill="#9E1328" width="1" height="1"/>
	<rect x="9" y="4" fill="#B6A696" width="1" height="1"/>
	<rect x="8" y="4" fill="#F2F1F0" width="1" height="1"/>
	<rect x="7" y="4" fill="#F2F1F0" width="1" height="1"/>
	<rect x="6" y="4" fill="#B6A696" width="1" height="1"/>
	<rect x="5" y="4" fill="#9E1328" width="1" height="1"/>
	<rect x="3" y="4" fill="#B6A696" width="1" height="1"/>
	<rect x="9" y="3" fill="#B6A696" width="1" height="1"/>
	<rect x="8" y="3" fill="#F2F1F0" width="1" height="1"/>
	<rect x="7" y="3" fill="#F2F1F0" width="1" height="1"/>
	<rect x="6" y="3" fill="#B6A696" width="1" height="1"/>
	<rect x="8" y="2" fill="#F2F1F0" width="1" height="1"/>
	<rect x="7" y="2" fill="#F2F1F0" width="1" height="1"/>
	<rect x="8" y="1" fill="#B6A696" width="1" height="1"/>
	<rect x="7" y="1" fill="#B6A696" width="1" height="1"/>
</g>
</svg>
